<svg xmlns="http://www.w3.org/2000/svg" viewBox="0 0 315 215" class="svg-logo" width="315" height="215" style="height: auto;"><rect rx="10" ry="10" width="100%" height="100%" fill="rgba(253, 229, 200, 1.0)"></rect><g data-element="wrapper" transform="translate(52.5625 29.674999999998672) scale(0.6816834370844378)"><g data-element="container" transform="translate(81.30952671595982 31.30952380952381) scale(0.25396825396825395)"><g><path id="fill_x5F_1_77_" fill="transparent" d="M528.602,105.683c-6.325-2.04-12.649-3.978-18.974-5.917
	c-41.008-12.139-78.752-32.643-112.109-59.37c-26.727-21.422-60.594-34.173-97.522-34.173s-70.795,12.853-97.42,34.275
	c-33.357,26.829-71.101,47.333-112.109,59.37c-6.325,1.836-12.649,3.876-18.974,5.917c-2.04,18.668-3.162,37.744-3.162,56.922
	c0,179.742,92.115,337.959,231.767,429.87c139.652-91.911,231.767-250.129,231.767-429.87
	C531.765,143.427,530.643,124.351,528.602,105.683z"></path>
<path id="frame_x5F_1_77_" d="M300,16.6c35.5,0,68,12.3,93.7,32.9c32,25.7,68.3,45.5,107.7,57.1c6.1,1.8,12.2,3.7,18.2,5.7
	c2,17.9,3,36.3,3,54.7c0,172.7-88.5,324.8-222.7,413.1C165.8,491.8,77.3,339.7,77.3,167c0-18.5,1-36.8,3-54.7c6-2,12.1-3.9,18.2-5.7
	C138,95,174.2,75.2,206.3,49.5C232,28.9,264.5,16.6,300,16.6 M300,0c-37.7,0-74.7,13-104.1,36.5c-31.4,25.3-65.7,43.5-102,54.2
	c-6.3,1.8-12.6,3.8-18.7,5.8L65,99.8l-1.2,10.6c-2.1,18.6-3.1,37.7-3.1,56.6c0,172.5,86,332.1,230.2,427l9.1,6l9.1-6
	c144.1-94.9,230.2-254.5,230.2-427c0-18.9-1.1-37.9-3.1-56.6L535,99.8l-10.2-3.3c-6.2-2-12.4-4-18.7-5.8
	c-36.3-10.7-70.6-28.9-102-54.2C374.7,13,337.7,0,300,0L300,0z M300,565.1l-2.4-1.6C167.5,473.5,89.7,325.3,89.7,167
	c0-14.2,0.6-28.5,1.9-42.6l0.2-2.8l2.7-0.8c2.5-0.8,5-1.5,7.5-2.3c39.9-11.8,77.6-31.7,112-59.3C238.7,39.5,268.4,29,300,29
	s61.3,10.4,85.9,30.2c34.4,27.6,72.1,47.6,112.1,59.3c2.5,0.7,5,1.5,7.5,2.3l2.7,0.8l0.2,2.8c1.2,14,1.9,28.4,1.9,42.6
	c0,158.3-77.7,306.5-207.9,396.5L300,565.1z M99.7,127.9C98.6,140.8,98,154,98,167c0,154.6,75.4,299.5,202,388.1
	C426.5,466.4,502,321.6,502,167c0-13-0.5-26.2-1.6-39.1c-1.6-0.5-3.2-1-4.7-1.4c-41-12.1-79.7-32.5-114.9-60.8
	c-23.1-18.5-51-28.3-80.7-28.3s-57.6,9.8-80.7,28.3c-35.3,28.3-73.9,48.8-114.9,60.8C102.8,127,101.2,127.4,99.7,127.9z" fill="rgba(115, 69, 69, 1.0)"></path></g></g><g><g data-element="icon" transform="scale(0.13566003598294685) translate(863.353881190889 494.78469869703406)"><path id="color_x5F_2" fill="#87B845" d="M201.085,562.899c27.213-26.188,59.127-43.056,89.397-53.936    c-1.375,0.227-2.739,0.431-4.12,0.668c-151.066,26.013-196.16,82.861-196.16,82.861s31.712-72.45,178.455-104.072    c134.387-28.957,233.27,23.309,233.27,23.309s-9.414-2.099-25.807-4.419C413.656,504.984,318.135,493.562,201.085,562.899z     M373.17,520.786c-61.441,14.858-90.189,42.113-90.189,42.113s65.476-26.084,113.301-35.163    c57.495-10.917,108.789-7.395,108.789-7.395C474.633,514.386,429.996,507.046,373.17,520.786z"></path> <path id="color_x5F_1" fill="#9F9D9E" d="M305.947,320.364l-78.458-14.139l9.24-8.538l41.82-5.887l28.83,7.994L305.947,320.364z     M319.555,226.045c7.363,0,13.331-5.968,13.331-13.331c0-7.363-5.968-13.331-13.331-13.331c-7.361,0-13.33,5.968-13.33,13.331    C306.225,220.077,312.193,226.045,319.555,226.045z M315.609,230.79l154.16,120.417c2.514,1.963,6.08,1.814,8.42-0.352l4.487-4.148    l-90.485-99.413l-58.623-21.249L315.609,230.79z M333.527,204.318L354.418,9.985c0.334-3.109-1.592-6.017-4.586-6.922    c-3.453-1.045-7.097,0.923-8.121,4.384l-35.486,120.126l13.283,63.46L333.527,204.318z M228.345,302.133    c4.405-2.336,6.083-7.801,3.747-12.207c-2.338-4.405-7.801-6.083-12.207-3.747c-4.405,2.336-6.083,7.801-3.746,12.206    C218.475,302.79,223.939,304.468,228.345,302.133z M339.432,308.683l2.153,18.104l33.2,5.985c3.715,0.67,7.277-1.771,7.996-5.476    c0.684-3.535-1.463-6.999-4.93-7.96L339.432,308.683z M222.922,266.604l-15.458,2.883l9.744,11.71l12.605,3.5L222.922,266.604z     M186.774,238.864l22.248-8.769l-37.29-97.939c-1.309-3.436-5.093-5.229-8.581-4.068c-3.458,1.154-5.41,4.807-4.446,8.322    L186.774,238.864z M327.752,245.033l-12.143-9.35l-8.769,246.475c14.136-1.605,27.751-2.363,40.765-2.459L327.752,245.033z     M228.369,310.352l-8.721-1.673l-6.439,195.238c9.094-3.206,18.824-6.261,29.229-9.106L228.369,310.352z M122.019,408.205l77-69.148    l15.789-35.91l-2.229-11.471L111.629,397.499c-2.899,3.04-2.721,7.874,0.398,10.692    C114.863,410.752,119.175,410.758,122.019,408.205z M134.375,278.283l121.386-24.354l45.436-35.924l5.028-16.505l-175.348,64.387    c-3.406,1.251-5.112,5.059-3.783,8.433C128.242,277.229,131.308,278.898,134.375,278.283z"></path></g><text transform="translate(44.078125 240.3571434020996)" fill="rgba(115, 69, 69, 1.0)" font-family="Changa One" font-size="64" data-element="company-name" dx="0 0 0 0 0 0 0">Tentron</text></g></g></svg>
